  0
SECTION
  2
HEADER
  9
$ACADVER
  1
AC1015
  9
$ACADMAINTVER
 70
     6
  9
$DWGCODEPAGE
  3
ANSI_1252
  9
$INSBASE
 10
0.0
 20
0.0
 30
0.0
  9
$EXTMIN
 10
-50.0
 20
-25.0
 30
0.0
  9
$EXTMAX
 10
50.0
 20
25.0
 30
0.0
  9
$LIMMIN
 10
0.0
 20
0.0
  9
$LIMMAX
 10
420.0
 20
297.0
  9
$ORTHOMODE
 70
     0
  9
$REGENMODE
 70
     1
  9
$FILLMODE
 70
     1
  9
$QTEXTMODE
 70
     0
  9
$MIRRTEXT
 70
     1
  9
$LTSCALE
 40
1.0
  9
$ATTMODE
 70
     1
  9
$TEXTSIZE
 40
3.5
  9
$TRACEWID
 40
1.0
  9
$TEXTSTYLE
  7
Standard
  9
$CLAYER
  8
0
  9
$CELTYPE
  6
ByLayer
  9
$CECOLOR
 62
   256
  9
$CELTSCALE
 40
1.0
  9
$DISPSILH
 70
     0
  9
$DIMSCALE
 40
1.0
  9
$DIMASZ
 40
3.302
  9
$DIMEXO
 40
1.0
  9
$DIMDLI
 40
3.75
  9
$DIMRND
 40
0.0
  9
$DIMDLE
 40
0.0
  9
$DIMEXE
 40
1.0
  9
$DIMTP
 40
0.0
  9
$DIMTM
 40
0.0
  9
$DIMTXT
 40
3.5
  9
$DIMCEN
 40
2.5
  9
$DIMTSZ
 40
0.0
  9
$DIMTOL
 70
     0
  9
$DIMLIM
 70
     0
  9
$DIMTIH
 70
     1
  9
$DIMTOH
 70
     1
  9
$DIMSE1
 70
     0
  9
$DIMSE2
 70
     0
  9
$DIMTAD
 70
     1
  9
$DIMZIN
 70
     0
  9
$DIMBLK
  1

  9
$DIMASO
 70
     1
  9
$DIMSHO
 70
     1
  9
$DIMPOST
  1

  9
$DIMAPOST
  1

  9
$DIMALT
 70
     0
  9
$DIMALTD
 70
     3
  9
$DIMALTF
 40
0.0393700787
  9
$DIMLFAC
 40
1.0
  9
$DIMTOFL
 70
     1
  9
$DIMTVP
 40
0.0
  9
$DIMTIX
 70
     0
  9
$DIMSOXD
 70
     0
  9
$DIMSAH
 70
     0
  9
$DIMBLK1
  1

  9
$DIMBLK2
  1

  9
$DIMSTYLE
  2
ISO-25
  9
$DIMCLRD
 70
     0
  9
$DIMCLRE
 70
     0
  9
$DIMCLRT
 70
     0
  9
$DIMTFAC
 40
1.0
  9
$DIMGAP
 40
1.524
  9
$DIMJUST
 70
     0
  9
$DIMSD1
 70
     0
  9
$DIMSD2
 70
     0
  9
$DIMTOLJ
 70
     0
  9
$DIMTZIN
 70
     0
  9
$DIMALTZ
 70
     0
  9
$DIMALTTZ
 70
     0
  9
$DIMUPT
 70
     0
  9
$DIMDEC
 70
     2
  9
$DIMTDEC
 70
     2
  9
$DIMALTU
 70
     2
  9
$DIMALTTD
 70
     3
  9
$DIMTXSTY
  7
Standard
  9
$DIMAUNIT
 70
     0
  9
$DIMADEC
 70
     2
  9
$DIMALTRND
 40
0.0
  9
$DIMAZIN
 70
     0
  9
$DIMDSEP
 70
    44
  9
$DIMATFIT
 70
     3
  9
$DIMFRAC
 70
     0
  9
$DIMLDRBLK
  1

  9
$DIMLUNIT
 70
     2
  9
$DIMLWD
 70
    -2
  9
$DIMLWE
 70
    -2
  9
$DIMTMOVE
 70
     0
  9
$LUNITS
 70
     2
  9
$LUPREC
 70
     2
  9
$SKETCHINC
 40
1.0
  9
$FILLETRAD
 40
10.0
  9
$AUNITS
 70
     0
  9
$AUPREC
 70
     2
  9
$MENU
  1
.
  9
$ELEVATION
 40
0.0
  9
$PELEVATION
 40
0.0
  9
$THICKNESS
 40
0.0
  9
$LIMCHECK
 70
     0
  9
$CHAMFERA
 40
0.0
  9
$CHAMFERB
 40
0.0
  9
$CHAMFERC
 40
0.0
  9
$CHAMFERD
 40
0.0
  9
$SKPOLY
 70
     0
  9
$TDCREATE
 40
2457903.624163762
  9
$TDUCREATE
 40
2457903.540830428
  9
$TDUPDATE
 40
2457903.62425368
  9
$TDUUPDATE
 40
2457903.540920347
  9
$TDINDWG
 40
0.0000000116
  9
$TDUSRTIMER
 40
0.0000000116
  9
$USRTIMER
 70
     1
  9
$ANGBASE
 50
0.0
  9
$ANGDIR
 70
     0
  9
$PDMODE
 70
     0
  9
$PDSIZE
 40
-1.0
  9
$PLINEWID
 40
0.0
  9
$SPLFRAME
 70
     0
  9
$SPLINETYPE
 70
     6
  9
$SPLINESEGS
 70
     8
  9
$HANDSEED
  5
97
  9
$SURFTAB1
 70
     6
  9
$SURFTAB2
 70
     6
  9
$SURFTYPE
 70
     6
  9
$SURFU
 70
     6
  9
$SURFV
 70
     6
  9
$UCSBASE
  2

  9
$UCSNAME
  2

  9
$UCSORG
 10
0.0
 20
0.0
 30
0.0
  9
$UCSXDIR
 10
1.0
 20
0.0
 30
0.0
  9
$UCSYDIR
 10
0.0
 20
1.0
 30
0.0
  9
$UCSORTHOREF
  2

  9
$UCSORTHOVIEW
 70
     0
  9
$UCSORGTOP
 10
0.0
 20
0.0
 30
0.0
  9
$UCSORGBOTTOM
 10
0.0
 20
0.0
 30
0.0
  9
$UCSORGLEFT
 10
0.0
 20
0.0
 30
0.0
  9
$UCSORGRIGHT
 10
0.0
 20
0.0
 30
0.0
  9
$UCSORGFRONT
 10
0.0
 20
0.0
 30
0.0
  9
$UCSORGBACK
 10
0.0
 20
0.0
 30
0.0
  9
$PUCSBASE
  2

  9
$PUCSNAME
  2

  9
$PUCSORG
 10
0.0
 20
0.0
 30
0.0
  9
$PUCSXDIR
 10
1.0
 20
0.0
 30
0.0
  9
$PUCSYDIR
 10
0.0
 20
1.0
 30
0.0
  9
$PUCSORTHOREF
  2

  9
$PUCSORTHOVIEW
 70
     0
  9
$PUCSORGTOP
 10
0.0
 20
0.0
 30
0.0
  9
$PUCSORGBOTTOM
 10
0.0
 20
0.0
 30
0.0
  9
$PUCSORGLEFT
 10
0.0
 20
0.0
 30
0.0
  9
$PUCSORGRIGHT
 10
0.0
 20
0.0
 30
0.0
  9
$PUCSORGFRONT
 10
0.0
 20
0.0
 30
0.0
  9
$PUCSORGBACK
 10
0.0
 20
0.0
 30
0.0
  9
$USERI1
 70
     0
  9
$USERI2
 70
     0
  9
$USERI3
 70
     0
  9
$USERI4
 70
     0
  9
$USERI5
 70
     0
  9
$USERR1
 40
0.0
  9
$USERR2
 40
0.0
  9
$USERR3
 40
0.0
  9
$USERR4
 40
0.0
  9
$USERR5
 40
0.0
  9
$WORLDVIEW
 70
     1
  9
$SHADEDGE
 70
     3
  9
$SHADEDIF
 70
    70
  9
$TILEMODE
 70
     1
  9
$MAXACTVP
 70
    64
  9
$PINSBASE
 10
0.0
 20
0.0
 30
0.0
  9
$PLIMCHECK
 70
     0
  9
$PEXTMIN
 10
1.0000000000E+20
 20
1.0000000000E+20
 30
1.0000000000E+20
  9
$PEXTMAX
 10
-1.0000000000E+20
 20
-1.0000000000E+20
 30
-1.0000000000E+20
  9
$PLIMMIN
 10
0.0
 20
0.0
  9
$PLIMMAX
 10
420.0
 20
297.0
  9
$UNITMODE
 70
     0
  9
$VISRETAIN
 70
     1
  9
$PLINEGEN
 70
     0
  9
$PSLTSCALE
 70
     1
  9
$TREEDEPTH
 70
  3020
  9
$CMLSTYLE
  2
Standard
  9
$CMLJUST
 70
     0
  9
$CMLSCALE
 40
20.0
  9
$PROXYGRAPHICS
 70
     1
  9
$MEASUREMENT
 70
     1
  9
$CELWEIGHT
370
    -1
  9
$ENDCAPS
280
     0
  9
$JOINSTYLE
280
     0
  9
$LWDISPLAY
290
     1
  9
$INSUNITS
 70
     4
  9
$HYPERLINKBASE
  1

  9
$STYLESHEET
  1

  9
$XEDIT
290
     1
  9
$CEPSNTYPE
380
     0
  9
$PSTYLEMODE
290
     1
  9
$FINGERPRINTGUID
  2
{385E057C-8F22-4747-A366-29F8C01A7F2E}
  9
$VERSIONGUID
  2
{FAEB1C32-E019-11D5-929B-00C0DF256EC4}
  9
$EXTNAMES
290
     1
  9
$PSVPSCALE
 40
0.0
  9
$OLESTARTUP
290
     0
  0
ENDSEC
  0
SECTION
  2
CLASSES
  0
CLASS
  1
ACDBDICTIONARYWDFLT
  2
AcDbDictionaryWithDefault
  3
ObjectDBX Classes
 90
        0
280
     0
281
     0
  0
CLASS
  1
VISUALSTYLE
  2
AcDbVisualStyle
  3
ObjectDBX Classes
 90
     4095
280
     0
281
     0
  0
CLASS
  1
MATERIAL
  2
AcDbMaterial
  3
ObjectDBX Classes
 90
     1153
280
     0
281
     0
  0
CLASS
  1
SCALE
  2
AcDbScale
  3
ObjectDBX Classes
 90
     1153
280
     0
281
     0
  0
CLASS
  1
TABLESTYLE
  2
AcDbTableStyle
  3
ObjectDBX Classes
 90
     4095
280
     0
281
     0
  0
CLASS
  1
MLEADERSTYLE
  2
AcDbMLeaderStyle
  3
ACDB_MLEADERSTYLE_CLASS
 90
     4095
280
     0
281
     0
  0
CLASS
  1
SUN
  2
AcDbSun
  3
SCENEOE
 90
     1153
280
     0
281
     0
  0
CLASS
  1
ACDBPLACEHOLDER
  2
AcDbPlaceHolder
  3
ObjectDBX Classes
 90
        0
280
     0
281
     0
  0
CLASS
  1
LAYOUT
  2
AcDbLayout
  3
ObjectDBX Classes
 90
        0
280
     0
281
     0
  0
ENDSEC
  0
SECTION
  2
TABLES
  0
TABLE
  2
VPORT
  5
8
330
0
100
AcDbSymbolTable
 70
     1
  0
VPORT
  5
29
330
8
100
AcDbSymbolTableRecord
100
AcDbViewportTableRecord
  2
*Active
 70
     0
 10
0.0
 20
0.0
 11
1.0
 21
1.0
 12
0.0
 22
0.0
 13
0.0
 23
0.0
 14
10.0
 24
10.0
 15
10.0
 25
10.0
 16
0.0
 26
0.0
 36
1.0
 17
0.0
 27
0.0
 37
0.0
 40
51.0
 41
2.0
 42
50.0
 43
0.0
 44
0.0
 50
0.0
 51
0.0
 71
     0
 72
   100
 73
     1
 74
     3
 75
     0
 76
     0
 77
     0
 78
     0
281
     0
 65
     1
110
0.0
120
0.0
130
0.0
111
1.0
121
0.0
131
0.0
112
0.0
122
1.0
132
0.0
 79
     0
146
0.0
  0
ENDTAB
  0
TABLE
  2
LTYPE
  5
5
330
0
100
AcDbSymbolTable
 70
     6
  0
LTYPE
  5
14
330
5
100
AcDbSymbolTableRecord
100
AcDbLinetypeTableRecord
  2
ByBlock
 70
     0
  3

 72
    65
 73
     0
 40
0.0
  0
LTYPE
  5
15
330
5
100
AcDbSymbolTableRecord
100
AcDbLinetypeTableRecord
  2
ByLayer
 70
     0
  3

 72
    65
 73
     0
 40
0.0
  0
LTYPE
  5
16
330
5
100
AcDbSymbolTableRecord
100
AcDbLinetypeTableRecord
  2
Continuous
 70
     0
  3
Solid line
 72
    65
 73
     0
 40
0.0
  0
LTYPE
  5
6E
330
5
100
AcDbSymbolTableRecord
100
AcDbLinetypeTableRecord
  2
HIDDEN
 70
     0
  3
Hidden __ __ __ __ __ __ __ __ __ __ __ __ __ __
 72
    65
 73
     2
 40
1.905
 49
1.27
 74
     0
 49
-0.635
 74
     0
  0
LTYPE
  5
6F
330
5
100
AcDbSymbolTableRecord
100
AcDbLinetypeTableRecord
  2
PHANTOM
 70
     0
  3
Phantom ______  __  __  ______  __  __  ______
 72
    65
 73
     6
 40
12.7
 49
6.35
 74
     0
 49
-1.27
 74
     0
 49
1.27
 74
     0
 49
-1.27
 74
     0
 49
1.27
 74
     0
 49
-1.27
 74
     0
  0
LTYPE
  5
70
330
5
100
AcDbSymbolTableRecord
100
AcDbLinetypeTableRecord
  2
CENTER
 70
     0
  3
Center ____ _ ____ _ ____ _ ____ _ ____ _ ____
 72
    65
 73
     4
 40
10.16
 49
6.35
 74
     0
 49
-1.27
 74
     0
 49
1.27
 74
     0
 49
-1.27
 74
     0
  0
LTYPE
  5
71
330
5
100
AcDbSymbolTableRecord
100
AcDbLinetypeTableRecord
  2
CENTERX2
 70
     0
  3
Center (2x) ________  __  ________  __  _____
 72
    65
 73
     4
 40
20.32
 49
12.7
 74
     0
 49
-2.54
 74
     0
 49
2.54
 74
     0
 49
-2.54
 74
     0
  0
LTYPE
  5
72
330
5
100
AcDbSymbolTableRecord
100
AcDbLinetypeTableRecord
  2
DOT2
 70
     0
  3
Dot (.5x) ........................................
 72
    65
 73
     2
 40
0.635
 49
0.0
 74
     0
 49
-0.635
 74
     0
  0
ENDTAB
  0
TABLE
  2
LAYER
  5
2
330
0
100
AcDbSymbolTable
 70
     1
  0
LAYER
  5
10
330
2
100
AcDbSymbolTableRecord
100
AcDbLayerTableRecord
  2
0
 70
     0
 62
     7
  6
Continuous
370
    -3
390
F
  0
ENDTAB
  0
TABLE
  2
STYLE
  5
3
330
0
100
AcDbSymbolTable
 70
     2
  0
STYLE
  5
11
330
3
100
AcDbSymbolTableRecord
100
AcDbTextStyleTableRecord
  2
Standard
 70
     0
 40
0.0
 41
1.0
 50
0.0
 71
     0
 42
3.5
  3
txt
  4

  0
STYLE
  5
95
330
3
100
AcDbSymbolTableRecord
100
AcDbTextStyleTableRecord
  2
SLDTEXTSTYLE0
 70
     0
 40
0.0
 41
0.7
 50
0.0
 71
     0
 42
3.5
  3
TXT
  4
bigfont
  0
ENDTAB
  0
TABLE
  2
VIEW
  5
6
330
0
100
AcDbSymbolTable
 70
     0
  0
ENDTAB
  0
TABLE
  2
UCS
  5
7
330
0
100
AcDbSymbolTable
 70
     0
  0
ENDTAB
  0
TABLE
  2
APPID
  5
9
330
0
100
AcDbSymbolTable
 70
     1
  0
APPID
  5
12
330
9
100
AcDbSymbolTableRecord
100
AcDbRegAppTableRecord
  2
ACAD
 70
     0
  0
ENDTAB
  0
TABLE
  2
DIMSTYLE
  5
A
330
0
100
AcDbSymbolTable
 70
     1
100
AcDbDimStyleTable
  0
DIMSTYLE
105
27
330
A
100
AcDbSymbolTableRecord
100
AcDbDimStyleTableRecord
  2
ISO-25
 70
     0
 41
2.5
 42
0.625
 43
3.75
 44
1.25
 73
     0
 74
     0
 77
     1
 78
     8
140
2.5
141
2.5
143
0.0393700787
147
0.625
171
     3
172
     1
178
     0
271
     2
272
     2
274
     3
278
    44
283
     0
284
     8
340
11
  0
ENDTAB
  0
TABLE
  2
BLOCK_RECORD
  5
1
330
0
100
AcDbSymbolTable
 70
     1
  0
BLOCK_RECORD
  5
1F
330
1
100
AcDbSymbolTableRecord
100
AcDbBlockTableRecord
  2
*Model_Space
340
22
  0
BLOCK_RECORD
  5
1B
330
1
100
AcDbSymbolTableRecord
100
AcDbBlockTableRecord
  2
*Paper_Space
340
1E
  0
BLOCK_RECORD
  5
23
330
1
100
AcDbSymbolTableRecord
100
AcDbBlockTableRecord
  2
*Paper_Space0
340
26
  0
ENDTAB
  0
ENDSEC
  0
SECTION
  2
BLOCKS
  0
BLOCK
  5
20
330
1F
100
AcDbEntity
  8
0
100
AcDbBlockBegin
  2
*Model_Space
 70
     0
 10
0.0
 20
0.0
 30
0.0
  3
*Model_Space
  1

  0
ENDBLK
  5
21
330
1F
100
AcDbEntity
  8
0
100
AcDbBlockEnd
  0
BLOCK
  5
1C
330
1B
100
AcDbEntity
 67
     1
  8
0
100
AcDbBlockBegin
  2
*Paper_Space
 70
     0
 10
0.0
 20
0.0
 30
0.0
  3
*Paper_Space
  1

  0
ENDBLK
  5
1D
330
1B
100
AcDbEntity
 67
     1
  8
0
100
AcDbBlockEnd
  0
BLOCK
  5
24
330
23
100
AcDbEntity
  8
0
100
AcDbBlockBegin
  2
*Paper_Space0
 70
     0
 10
0.0
 20
0.0
 30
0.0
  3
*Paper_Space0
  1

  0
ENDBLK
  5
25
330
23
100
AcDbEntity
  8
0
100
AcDbBlockEnd
  0
ENDSEC
  0
SECTION
  2
ENTITIES
  0
LINE
  5
73
330
1F
100
AcDbEntity
  8
0
  6
CENTERX2
 62
     7
100
AcDbLine
 10
-50.0
 20
6.4283577347
 30
0.0
 11
50.0
 21
6.4283577347
 31
0.0
  0
LINE
  5
74
330
1F
100
AcDbEntity
  8
0
  6
Continuous
 62
     7
100
AcDbLine
 10
-50.0
 20
-25.0
 30
0.0
 11
50.0
 21
-25.0
 31
0.0
  0
LINE
  5
75
330
1F
100
AcDbEntity
  8
0
  6
Continuous
 62
     7
100
AcDbLine
 10
-50.0
 20
-25.0
 30
0.0
 11
-50.0
 21
25.0
 31
0.0
  0
LINE
  5
76
330
1F
100
AcDbEntity
  8
0
  6
Continuous
 62
     7
100
AcDbLine
 10
-50.0
 20
25.0
 30
0.0
 11
50.0
 21
25.0
 31
0.0
  0
LINE
  5
77
330
1F
100
AcDbEntity
  8
0
  6
Continuous
 62
     7
100
AcDbLine
 10
50.0
 20
-25.0
 30
0.0
 11
50.0
 21
25.0
 31
0.0
  0
LINE
  5
78
330
1F
100
AcDbEntity
  8
0
  6
CENTERX2
 62
     7
100
AcDbLine
 10
-50.0
 20
-25.0
 30
0.0
 11
50.0
 21
25.0
 31
0.0
  0
LINE
  5
79
330
1F
100
AcDbEntity
  8
0
  6
CENTERX2
 62
     7
100
AcDbLine
 10
-50.0
 20
25.0
 30
0.0
 11
50.0
 21
-25.0
 31
0.0
  0
LINE
  5
7A
330
1F
100
AcDbEntity
  8
0
  6
CENTERX2
 62
     7
100
AcDbLine
 10
-50.0
 20
-10.9235188572
 30
0.0
 11
50.0
 21
-10.9235188572
 31
0.0
  0
LWPOLYLINE
  5
7B
330
1F
100
AcDbEntity
  8
0
  6
Continuous
 62
     7
100
AcDbPolyline
 90
       57
 70
   128
 43
0.0
 10
-34.1922938824
 20
6.4283577347
 10
-34.1923076923
 20
15.9533577347
 10
-34.1923076923
 20
15.9533577347
 10
-32.2689903846
 20
15.9533577347
 10
-32.2689903846
 20
15.9533577347
 10
-31.767172476
 20
15.947633576
 10
-31.2996995192
 20
15.932369153
 10
-30.8684795673
 20
15.9056564126
 10
-30.4716045673
 20
15.8674953549
 10
-30.112890625
 20
15.8197940328
 10
-29.7885216346
 20
15.7606443933
 10
-29.500405649
 20
15.6900464366
 10
-29.2466346154
 20
15.6099082155
 10
-29.2466346154
 20
15.6099082155
 10
-28.9184495192
 20
15.4782525664
 10
-28.6093449519
 20
15.3237002828
 10
-28.3174128606
 20
15.1462513645
 10
-28.0445612981
 20
14.9478138645
 10
-27.7907902644
 20
14.724571677
 10
-27.5541917067
 20
14.4822489607
 10
-27.3366736779
 20
14.2151215568
 10
-27.1382361779
 20
13.9270055712
 10
-26.9588792067
 20
13.6198090568
 10
-26.8043269231
 20
13.2992561722
 10
-26.6745793269
 20
12.9634388645
 10
-26.5677283654
 20
12.6142651866
 10
-26.4837740385
 20
12.2498270857
 10
-26.424624399
 20
11.8701245616
 10
-26.3883713942
 20
11.4770656674
 10
-26.3769230769
 20
11.070650403
 10
-26.3769230769
 20
11.070650403
 10
-26.3864633413
 20
10.7176606193
 10
-26.4150841346
 20
10.376119153
 10
-26.4608774038
 20
10.0460260039
 10
-26.5276592548
 20
9.7254731193
 10
-26.6116135817
 20
9.416368552
 10
-26.7165564904
 20
9.1168042491
 10
-26.838671875
 20
8.8286882635
 10
-26.9798677885
 20
8.5520205953
 10
-27.136328125
 20
8.2887092972
 10
-27.302328726
 20
8.044478528
 10
-27.4816856971
 20
7.8155121818
 10
-27.6705829327
 20
7.6075344174
 10
-27.8728365385
 20
7.414821076
 10
-28.0846304087
 20
7.2411882635
 10
-28.309780649
 20
7.084727927
 10
-28.5444711538
 20
6.9454400664
 10
-28.7963341346
 20
6.8233246818
 10
-29.0730018029
 20
6.7183817732
 10
-29.3744741587
 20
6.6306113405
 10
-29.698843149
 20
6.5581053308
 10
-30.0480168269
 20
6.5008637443
 10
-30.4219951923
 20
6.4607946337
 10
-30.8188701923
 20
6.4359899462
 10
-31.2405498798
 20
6.4283577347
 10
-31.2405498798
 20
6.4283577347
 10
-34.1923076923
 20
6.4283577347
  0
LWPOLYLINE
  5
7C
330
1F
100
AcDbEntity
  8
0
  6
Continuous
 62
     7
100
AcDbPolyline
 90
       58
 70
   128
 43
0.0
 10
-33.3374738693
 20
7.4052808116
 10
-32.2441856971
 20
7.4052808116
 10
-32.2441856971
 20
7.4052808116
 10
-31.7728966346
 20
7.4090969174
 10
-31.3378605769
 20
7.4205452347
 10
-30.9409855769
 20
7.4396257635
 10
-30.5822716346
 20
7.4663385039
 10
-30.2598106971
 20
7.5006834558
 10
-29.9755108173
 20
7.5407525664
 10
-29.7293719952
 20
7.5903619414
 10
-29.5213942308
 20
7.647603528
 10
-29.5213942308
 20
7.647603528
 10
-29.2618990385
 20
7.7430061722
 10
-29.0157602163
 20
7.8536732395
 10
-28.7848858173
 20
7.9834208357
 10
-28.5692758413
 20
8.1284328549
 10
-28.3670222356
 20
8.292525403
 10
-28.178125
 20
8.473790427
 10
-28.0044921875
 20
8.6703198741
 10
-27.8442157452
 20
8.8859298501
 10
-27.7011117788
 20
9.1168042491
 10
-27.5770883413
 20
9.3591269655
 10
-27.4702373798
 20
9.6128979991
 10
-27.384375
 20
9.880025403
 10
-27.317593149
 20
10.160509177
 10
-27.2698918269
 20
10.4524412683
 10
-27.2412710337
 20
10.755821677
 10
-27.2317307692
 20
11.0725584558
 10
-27.2317307692
 20
11.0725584558
 10
-27.2412710337
 20
11.4064677107
 10
-27.2737079327
 20
11.7270205953
 10
-27.3252253606
 20
12.0342171097
 10
-27.3977313702
 20
12.3299653068
 10
-27.4912259615
 20
12.6142651866
 10
-27.6057091346
 20
12.8852086962
 10
-27.7392728365
 20
13.1447038885
 10
-27.8957331731
 20
13.3908427107
 10
-28.0693659856
 20
13.6217171097
 10
-28.260171274
 20
13.8335109799
 10
-28.4662409856
 20
14.0262243212
 10
-28.6875751202
 20
14.2017651866
 10
-28.9260817308
 20
14.3563174703
 10
-29.1817608173
 20
14.493697278
 10
-29.4527043269
 20
14.6100885039
 10
-29.7408203125
 20
14.7093072539
 10
-29.7408203125
 20
14.7093072539
 10
-29.981234976
 20
14.7722729991
 10
-30.2559945913
 20
14.8256984799
 10
-30.5689152644
 20
14.8714917491
 10
-30.9161808894
 20
14.9096528068
 10
-31.2996995192
 20
14.9382736001
 10
-31.7194711538
 20
14.9592621818
 10
-32.1754957933
 20
14.972618552
 10
-32.6677734375
 20
14.9764346578
 10
-32.6677734375
 20
14.9764346578
 10
-33.3375
 20
14.9764346578
 10
-33.3375
 20
14.9764346578
 10
-33.3375
 20
7.4052808116
  0
LWPOLYLINE
  5
7D
330
1F
100
AcDbEntity
  8
0
  6
Continuous
 62
     7
100
AcDbPolyline
 90
       62
 70
   128
 43
0.0
 10
-17.5846070051
 20
13.3889346578
 10
-17.5846153846
 20
6.4283577347
 10
-17.5846153846
 20
6.4283577347
 10
-18.4394230769
 20
6.4283577347
 10
-18.4394230769
 20
6.4283577347
 10
-18.4394230769
 20
7.6323391049
 10
-18.4394230769
 20
7.6323391049
 10
-18.735171274
 20
7.3117862203
 10
-19.0461838942
 20
7.0370266049
 10
-19.3781850962
 20
6.8080602587
 10
-19.7254507212
 20
6.6248871818
 10
-20.0898888221
 20
6.4855993212
 10
-20.4695913462
 20
6.3863805712
 10
-20.868374399
 20
6.3253228789
 10
-21.282421875
 20
6.3062423501
 10
-21.282421875
 20
6.3062423501
 10
-21.6506760817
 20
6.323414826
 10
-22.0055739183
 20
6.373024201
 10
-22.3471153846
 20
6.4550704751
 10
-22.6753004808
 20
6.5695536482
 10
-22.9882211538
 20
6.7183817732
 10
-23.2896935096
 20
6.8996467972
 10
-23.5759014423
 20
7.1133487203
 10
-23.8487530048
 20
7.3613955953
 10
-24.0987079327
 20
7.6323391049
 10
-24.3143179087
 20
7.9166389847
 10
-24.4955829327
 20
8.2162032876
 10
-24.6463191106
 20
8.5310320135
 10
-24.7627103365
 20
8.8592171097
 10
-24.8447566106
 20
9.200758576
 10
-24.8943659856
 20
9.5575644655
 10
-24.9115384615
 20
9.9277267251
 10
-24.9115384615
 20
9.9277267251
 10
-24.8943659856
 20
10.2902567732
 10
-24.8447566106
 20
10.6413385039
 10
-24.7608022837
 20
10.9771558116
 10
-24.6425030048
 20
11.301524802
 10
-24.4917668269
 20
11.6106293693
 10
-24.30859375
 20
11.9063775664
 10
-24.0910757212
 20
12.1906774462
 10
-23.8392127404
 20
12.459712903
 10
-23.564453125
 20
12.7058517251
 10
-23.2744290865
 20
12.9195536482
 10
-22.9729567308
 20
13.1008186722
 10
-22.6562199519
 20
13.2477387443
 10
-22.3261268029
 20
13.3641299703
 10
-21.9826772837
 20
13.4461762443
 10
-21.6258713942
 20
13.4938775664
 10
-21.2557091346
 20
13.5110500424
 10
-21.2557091346
 20
13.5110500424
 10
-20.8302133413
 20
13.4900614607
 10
-20.4257061298
 20
13.4270957155
 10
-20.0421875
 20
13.3202447539
 10
-19.6796574519
 20
13.1733246818
 10
-19.3381159856
 20
12.9806113405
 10
-19.0156550481
 20
12.7363805712
 10
-18.7179987981
 20
12.4444484799
 10
-18.4394230769
 20
12.1009989607
 10
-18.4394230769
 20
12.1009989607
 10
-18.4394230769
 20
13.3889346578
 10
-18.4394230769
 20
13.3889346578
 10
-17.5846153846
 20
13.3889346578
  0
LWPOLYLINE
  5
7E
330
1F
100
AcDbEntity
  8
0
  6
Continuous
 62
     7
100
AcDbPolyline
 90
       56
 70
   128
 43
0.0
 10
-21.2442576885
 20
12.6562423501
 10
-21.6182391827
 20
12.6333457155
 10
-21.976953125
 20
12.5665638645
 10
-22.3204026442
 20
12.4539887443
 10
-22.6504957933
 20
12.2975284078
 10
-22.9557842548
 20
12.1009989607
 10
-23.2286358173
 20
11.8663084558
 10
-23.4690504808
 20
11.5972729991
 10
-23.6770282452
 20
11.2900764847
 10
-23.8430288462
 20
10.9618913885
 10
-23.961328125
 20
10.6222579751
 10
-24.0338341346
 20
10.2749923501
 10
-24.0567307692
 20
9.9181864607
 10
-24.0567307692
 20
9.9181864607
 10
-24.0319260817
 20
9.5632886241
 10
-23.961328125
 20
9.2160229991
 10
-23.8411207933
 20
8.8763895857
 10
-23.6732121394
 20
8.5443883837
 10
-23.4633263221
 20
8.2352838164
 10
-23.2229116587
 20
7.9624322539
 10
-22.9481520433
 20
7.7258336962
 10
-22.6409555288
 20
7.5254881433
 10
-22.3108623798
 20
7.365211701
 10
-21.9693209135
 20
7.2526365808
 10
-21.6163311298
 20
7.183946677
 10
-21.2518930288
 20
7.1610500424
 10
-21.2518930288
 20
7.1610500424
 10
-20.8817307692
 20
7.183946677
 10
-20.521108774
 20
7.250728528
 10
-20.1719350962
 20
7.3633036482
 10
-19.8323016827
 20
7.5216720376
 10
-19.5174729567
 20
7.7182014847
 10
-19.2388972356
 20
7.9471678308
 10
-19.0022986779
 20
8.208571076
 10
-18.801953125
 20
8.5005031674
 10
-18.6435847356
 20
8.8191479991
 10
-18.5291015625
 20
9.1587814126
 10
-18.4623197115
 20
9.515587302
 10
-18.4394230769
 20
9.8933817732
 10
-18.4394230769
 20
9.8933817732
 10
-18.4527794471
 20
10.1814977587
 10
-18.4909405048
 20
10.458165427
 10
-18.55390625
 20
10.723384778
 10
-18.6416766827
 20
10.9752477587
 10
-18.7561598558
 20
11.2156624222
 10
-18.8954477163
 20
11.4446287683
 10
-19.0595402644
 20
11.6602387443
 10
-19.2503455529
 20
11.864400403
 10
-19.4583233173
 20
12.0494815328
 10
-19.677749399
 20
12.211666028
 10
-19.910531851
 20
12.3471377828
 10
-20.1528545673
 20
12.4578048501
 10
-20.4085336538
 20
12.5455752828
 10
-20.6756610577
 20
12.6066329751
 10
-20.9542367788
 20
12.6447940328
 10
-21.2442608173
 20
12.6562423501
  0
LWPOLYLINE
  5
7F
330
1F
100
AcDbEntity
  8
0
  6
Continuous
 62
     7
100
AcDbPolyline
 90
       14
 70
   128
 43
0.0
 10
-16.1192268133
 20
15.9533577347
 10
-15.2033653846
 20
15.9533577347
 10
-15.2033653846
 20
15.9533577347
 10
-12.0283653846
 20
8.4470776866
 10
-12.0283653846
 20
8.4470776866
 10
-8.8533653846
 20
15.9533577347
 10
-8.8533653846
 20
15.9533577347
 10
-7.9375
 20
15.9533577347
 10
-7.9375
 20
15.9533577347
 10
-11.9673076923
 20
6.4283577347
 10
-11.9673076923
 20
6.4283577347
 10
-12.0894230769
 20
6.4283577347
 10
-12.0894230769
 20
6.4283577347
 10
-16.1192307692
 20
15.9533577347
  0
LWPOLYLINE
  5
80
330
1F
100
AcDbEntity
  8
0
  6
Continuous
 62
     7
100
AcDbPolyline
 90
       36
 70
   128
 43
0.0
 10
-6.1706416309
 20
16.3197038885
 10
-6.0122746394
 20
16.3063475183
 10
-5.8653545673
 20
16.2662784078
 10
-5.7298828125
 20
16.1975885039
 10
-5.6077674279
 20
16.1040939126
 10
-5.5047325721
 20
15.9915187924
 10
-5.4322265625
 20
15.865587302
 10
-5.3883413462
 20
15.7301155472
 10
-5.3730769231
 20
15.5831954751
 10
-5.3730769231
 20
15.5831954751
 10
-5.3883413462
 20
15.4400915087
 10
-5.4322265625
 20
15.3065278068
 10
-5.5047325721
 20
15.1825043693
 10
-5.6077674279
 20
15.0699292491
 10
-5.7298828125
 20
14.9764346578
 10
-5.8653545673
 20
14.9077447539
 10
-6.0122746394
 20
14.8676756433
 10
-6.1706430288
 20
14.8543192732
 10
-6.1706430288
 20
14.8543192732
 10
-6.3271033654
 20
14.8676756433
 10
-6.4702073317
 20
14.9077447539
 10
-6.6056790865
 20
14.9764346578
 10
-6.7277944712
 20
15.0699292491
 10
-6.828921274
 20
15.1825043693
 10
-6.9014272837
 20
15.3065278068
 10
-6.9453125
 20
15.4400915087
 10
-6.9605769231
 20
15.5831954751
 10
-6.9605769231
 20
15.5831954751
 10
-6.9453125
 20
15.7301155472
 10
-6.9014272837
 20
15.865587302
 10
-6.828921274
 20
15.9915187924
 10
-6.7277944712
 20
16.1040939126
 10
-6.6056790865
 20
16.1975885039
 10
-6.4702073317
 20
16.2662784078
 10
-6.3271033654
 20
16.3063475183
 10
-6.1706430288
 20
16.3197038885
  0
LWPOLYLINE
  5
81
330
1F
100
AcDbEntity
  8
0
  6
Continuous
 62
     7
100
AcDbPolyline
 90
        8
 70
   128
 43
0.0
 10
-6.5942294896
 20
13.3889346578
 10
-5.7394230769
 20
13.3889346578
 10
-5.7394230769
 20
13.3889346578
 10
-5.7394230769
 20
6.4283577347
 10
-5.7394230769
 20
6.4283577347
 10
-6.5942307692
 20
6.4283577347
 10
-6.5942307692
 20
6.4283577347
 10
-6.5942307692
 20
13.3889346578
  0
LWPOLYLINE
  5
82
330
1F
100
AcDbEntity
  8
0
  6
Continuous
 62
     7
100
AcDbPolyline
 90
       86
 70
   128
 43
0.0
 10
-3.6634597927
 20
13.3889346578
 10
-2.8086538462
 20
13.3889346578
 10
-2.8086538462
 20
13.3889346578
 10
-2.8086538462
 20
12.1334358597
 10
-2.8086538462
 20
12.1334358597
 10
-2.5281700721
 20
12.4692531674
 10
-2.2343299279
 20
12.757369153
 10
-1.9252253606
 20
12.9939677107
 10
-1.6008563702
 20
13.1828649462
 10
-1.2631310096
 20
13.3259689126
 10
-0.910141226
 20
13.4290037683
 10
-0.5418870192
 20
13.4900614607
 10
-0.1602764423
 20
13.5110500424
 10
-0.1602764423
 20
13.5110500424
 10
0.2251502404
 20
13.4862453549
 10
0.5876802885
 20
13.4137393453
 10
0.9273137019
 20
13.2897159078
 10
1.2440504808
 20
13.1179911482
 10
1.5302584135
 20
12.9042892251
 10
1.7783052885
 20
12.6562423501
 10
1.984375
 20
12.3738505232
 10
2.150375601
 20
12.0571137443
 10
2.2190655048
 20
11.879664826
 10
2.2782151442
 20
11.6774112203
 10
2.3278245192
 20
11.4541690328
 10
2.3698016827
 20
11.2061221578
 10
2.4003305288
 20
10.9351786482
 10
2.4232271635
 20
10.6413385039
 10
2.4384915865
 20
10.3226936722
 10
2.4423076923
 20
9.9830602587
 10
2.4423076923
 20
9.9830602587
 10
2.4423076923
 20
6.4283577347
 10
2.4423076923
 20
6.4283577347
 10
1.5875
 20
6.4283577347
 10
1.5875
 20
6.4283577347
 10
1.5875
 20
9.7025764847
 10
1.5875
 20
9.7025764847
 10
1.5855919471
 20
9.9868763645
 10
1.5817758413
 20
10.2463715568
 10
1.5741436298
 20
10.4810620616
 10
1.5626953125
 20
10.6928559318
 10
1.5474308894
 20
10.8779370616
 10
1.5302584135
 20
11.0382135039
 10
1.5092698317
 20
11.1755933116
 10
1.4863731971
 20
11.2862603789
 10
1.4863731971
 20
11.2862603789
 10
1.3890625
 20
11.6068132635
 10
1.2535907452
 20
11.8853889847
 10
1.0818659856
 20
12.1200794895
 10
0.8738882212
 20
12.3127928308
 10
0.6296574519
 20
12.4635290087
 10
0.3510817308
 20
12.5703799703
 10
0.0381610577
 20
12.6352537683
 10
-0.3091045673
 20
12.6562423501
 10
-0.3091045673
 20
12.6562423501
 10
-0.5151742788
 20
12.6486101385
 10
-0.7155198317
 20
12.623805451
 10
-0.9120492788
 20
12.5818282876
 10
-1.1009465144
 20
12.524586701
 10
-1.2860276442
 20
12.4482645857
 10
-1.4653846154
 20
12.3585861001
 10
-1.6390174279
 20
12.2498270857
 10
-1.8069260817
 20
12.1258036482
 10
-1.9652944712
 20
11.9884238405
 10
-2.1083984375
 20
11.8453198741
 10
-2.2381460337
 20
11.6926756433
 10
-2.3545372596
 20
11.532399201
 10
-2.4556640625
 20
11.3644905472
 10
-2.5434344952
 20
11.1889496818
 10
-2.6178485577
 20
11.003868552
 10
-2.6769981971
 20
10.8130632635
 10
-2.6769981971
 20
10.8130632635
 10
-2.7075270433
 20
10.6718673501
 10
-2.7342397837
 20
10.5039586962
 10
-2.7571364183
 20
10.3112453549
 10
-2.7762169471
 20
10.0899112203
 10
-2.7895733173
 20
9.8437723982
 10
-2.8010216346
 20
9.5709208357
 10
-2.8067457933
 20
9.2713565328
 10
-2.8086538462
 20
8.9450794895
 10
-2.8086538462
 20
8.9450794895
 10
-2.8086538462
 20
6.4283577347
 10
-2.8086538462
 20
6.4283577347
 10
-3.6634615385
 20
6.4283577347
 10
-3.6634615385
 20
6.4283577347
 10
-3.6634615385
 20
13.3889346578
  0
LWPOLYLINE
  5
83
330
1F
100
AcDbEntity
  8
0
  6
Continuous
 62
     7
100
AcDbPolyline
 90
      124
 70
   128
 43
0.0
 10
11.2346112728
 20
11.879664826
 10
10.5190955529
 20
11.4350885039
 10
10.5190955529
 20
11.4350885039
 10
10.2767728365
 20
11.7212964366
 10
10.0115534856
 20
11.9693433116
 10
9.7272536058
 20
12.1792291289
 10
9.4219651442
 20
12.3509538885
 10
9.0937800481
 20
12.4845175905
 10
8.7446063702
 20
12.5799202347
 10
8.3763521635
 20
12.6371618212
 10
7.9852013221
 20
12.6562423501
 10
7.9852013221
 20
12.6562423501
 10
7.672280649
 20
12.6428859799
 10
7.3708082933
 20
12.6066329751
 10
7.0846003606
 20
12.5436672299
 10
6.8117487981
 20
12.4578048501
 10
6.5522536058
 20
12.3452297299
 10
6.3061147837
 20
12.2078499222
 10
6.0733323317
 20
12.0475734799
 10
5.85390625
 20
11.8605842972
 10
5.65546875
 20
11.6564226385
 10
5.4837439904
 20
11.4408126626
 10
5.3368239183
 20
11.2156624222
 10
5.2185246394
 20
10.9790638645
 10
5.1250300481
 20
10.7329250424
 10
5.06015625
 20
10.475337903
 10
5.0200871394
 20
10.2063024462
 10
5.0067307692
 20
9.9277267251
 10
5.0067307692
 20
9.9277267251
 10
5.0315354567
 20
9.5632886241
 10
5.1040414663
 20
9.2102988405
 10
5.226156851
 20
8.8668493212
 10
5.3959735577
 20
8.5348481193
 10
5.6096754808
 20
8.2276516049
 10
5.8596304087
 20
7.9548000424
 10
6.1439302885
 20
7.7201095376
 10
6.466391226
 20
7.5216720376
 10
6.8174729567
 20
7.3633036482
 10
7.1876352163
 20
7.250728528
 10
7.5787860577
 20
7.183946677
 10
7.9909254808
 20
7.1610500424
 10
7.9909254808
 20
7.1610500424
 10
8.3687199519
 20
7.1801305712
 10
8.7293419471
 20
7.2373721578
 10
9.0708834135
 20
7.332774802
 10
9.3971604567
 20
7.4663385039
 10
9.7043569712
 20
7.6380632635
 10
9.9924729567
 20
7.8479490808
 10
10.2653245192
 20
8.0959959558
 10
10.5190955529
 20
8.3822038885
 10
10.5190955529
 20
8.3822038885
 10
11.2346153846
 20
7.9128228789
 10
11.2346153846
 20
7.9128228789
 10
11.1048677885
 20
7.7277417491
 10
10.963671875
 20
7.5522008837
 10
10.8110276442
 20
7.3881083357
 10
10.648843149
 20
7.2354641049
 10
10.4771183894
 20
7.0923601385
 10
10.2920372596
 20
6.9607044895
 10
10.0974158654
 20
6.8385891049
 10
9.8932542067
 20
6.7279220376
 10
9.6795522837
 20
6.6287032876
 10
9.458218149
 20
6.5428409078
 10
9.2311598558
 20
6.4703348982
 10
8.9945612981
 20
6.4111852587
 10
8.7522385817
 20
6.3653919895
 10
8.500375601
 20
6.3329550905
 10
8.2427884615
 20
6.3119665087
 10
7.9775691106
 20
6.3062423501
 10
7.9775691106
 20
6.3062423501
 10
7.573061899
 20
6.3215067732
 10
7.1876352163
 20
6.3711161482
 10
6.8193810096
 20
6.4512543693
 10
6.4682992788
 20
6.5638294895
 10
6.134390024
 20
6.7088415087
 10
5.8176532452
 20
6.886290427
 10
5.5199969952
 20
7.0961762443
 10
5.2395132212
 20
7.3384989607
 10
4.9838341346
 20
7.6037183116
 10
4.7644080529
 20
7.8842020857
 10
4.5774188702
 20
8.176134177
 10
4.4247746394
 20
8.4833306914
 10
4.3045673077
 20
8.8057916289
 10
4.2206129808
 20
9.1397008837
 10
4.1690955529
 20
9.4888745616
 10
4.1519230769
 20
9.8514046097
 10
4.1519230769
 20
9.8514046097
 10
4.1595552885
 20
10.0975434318
 10
4.184359976
 20
10.3398661482
 10
4.2225210337
 20
10.5783727587
 10
4.2797626202
 20
10.8111552107
 10
4.3503605769
 20
11.0401215568
 10
4.4381310096
 20
11.2652717972
 10
4.5411658654
 20
11.4846978789
 10
4.6594651442
 20
11.7003078549
 10
4.7930288462
 20
11.9082856193
 10
4.9380408654
 20
12.1029070135
 10
5.0945012019
 20
12.2879881433
 10
5.2643179087
 20
12.459712903
 10
5.4436748798
 20
12.6199893453
 10
5.6363882212
 20
12.7688174703
 10
5.8424579327
 20
12.906197278
 10
6.0580679087
 20
13.0321287683
 10
6.283218149
 20
13.1447038885
 10
6.516000601
 20
13.2420145857
 10
6.7545072115
 20
13.3240608597
 10
7.0006460337
 20
13.3908427107
 10
7.2525090144
 20
13.4442681914
 10
7.5100961538
 20
13.4805211962
 10
7.7753155048
 20
13.5034178308
 10
8.0481670673
 20
13.5110500424
 10
8.0481670673
 20
13.5110500424
 10
8.3897085337
 20
13.4976936722
 10
8.7274338942
 20
13.4576245616
 10
9.0575270433
 20
13.3927507635
 10
9.3818960337
 20
13.2992561722
 10
9.691000601
 20
13.1847729991
 10
9.9772085337
 20
13.055025403
 10
10.236703726
 20
12.9081053308
 10
10.4733022837
 20
12.7459208357
 10
10.6889122596
 20
12.5646558116
 10
10.8873497596
 20
12.360494153
 10
11.0705228365
 20
12.1315278068
 10
11.2346153846
 20
11.879664826
  0
LWPOLYLINE
  5
84
330
1F
100
AcDbEntity
  8
0
  6
Continuous
 62
     7
100
AcDbPolyline
 90
       36
 70
   128
 43
0.0
 10
13.2457017899
 20
16.3197038885
 10
13.4040715144
 20
16.3063475183
 10
13.5509915865
 20
16.2662784078
 10
13.6864633413
 20
16.1975885039
 10
13.808578726
 20
16.1040939126
 10
13.9116135817
 20
15.9915187924
 10
13.9841195913
 20
15.865587302
 10
14.0280048077
 20
15.7301155472
 10
14.0432692308
 20
15.5831954751
 10
14.0432692308
 20
15.5831954751
 10
14.0280048077
 20
15.4400915087
 10
13.9841195913
 20
15.3065278068
 10
13.9116135817
 20
15.1825043693
 10
13.808578726
 20
15.0699292491
 10
13.6864633413
 20
14.9764346578
 10
13.5509915865
 20
14.9077447539
 10
13.4040715144
 20
14.8676756433
 10
13.245703125
 20
14.8543192732
 10
13.245703125
 20
14.8543192732
 10
13.0892427885
 20
14.8676756433
 10
12.9461388221
 20
14.9077447539
 10
12.8106670673
 20
14.9764346578
 10
12.6885516827
 20
15.0699292491
 10
12.5874248798
 20
15.1825043693
 10
12.5149188702
 20
15.3065278068
 10
12.4710336538
 20
15.4400915087
 10
12.4557692308
 20
15.5831954751
 10
12.4557692308
 20
15.5831954751
 10
12.4710336538
 20
15.7301155472
 10
12.5149188702
 20
15.865587302
 10
12.5874248798
 20
15.9915187924
 10
12.6885516827
 20
16.1040939126
 10
12.8106670673
 20
16.1975885039
 10
12.9461388221
 20
16.2662784078
 10
13.0892427885
 20
16.3063475183
 10
13.245703125
 20
16.3197038885
  0
LWPOLYLINE
  5
85
330
1F
100
AcDbEntity
  8
0
  6
Continuous
 62
     7
100
AcDbPolyline
 90
        8
 70
   128
 43
0.0
 10
12.8221139312
 20
13.3889346578
 10
13.6769230769
 20
13.3889346578
 10
13.6769230769
 20
13.3889346578
 10
13.6769230769
 20
6.4283577347
 10
13.6769230769
 20
6.4283577347
 10
12.8221153846
 20
6.4283577347
 10
12.8221153846
 20
6.4283577347
 10
12.8221153846
 20
13.3889346578
  0
LWPOLYLINE
  5
86
330
1F
100
AcDbEntity
  8
0
  6
Continuous
 62
     7
100
AcDbPolyline
 90
       62
 70
   128
 43
0.0
 10
15.9971117973
 20
15.9533577347
 10
17.8555588942
 20
15.9533577347
 10
17.8555588942
 20
15.9533577347
 10
18.1284104567
 20
15.9495416289
 10
18.3840895433
 20
15.9361852587
 10
18.6245042067
 20
15.915196677
 10
18.8477463942
 20
15.8846678308
 10
19.0557241587
 20
15.8465067732
 10
19.2465294471
 20
15.8007135039
 10
19.4220703125
 20
15.7453799703
 10
19.5804387019
 20
15.6805061722
 10
19.8666466346
 20
15.5259538885
 10
20.1204176683
 20
15.337056653
 10
20.3417518029
 20
15.1080903068
 10
20.5325570913
 20
14.8447790087
 10
20.6852013221
 20
14.5547549703
 10
20.7939603365
 20
14.2513745616
 10
20.8607421875
 20
13.9289136241
 10
20.8817307692
 20
13.5930963164
 10
20.8817307692
 20
13.5930963164
 10
20.8645582933
 20
13.2782675905
 10
20.8111328125
 20
12.9787032876
 10
20.7233623798
 20
12.6924953549
 10
20.6012469952
 20
12.4215518453
 10
20.4447866587
 20
12.1715969174
 10
20.257797476
 20
11.9445386241
 10
20.0345552885
 20
11.7441930712
 10
19.7807842548
 20
11.566744153
 10
19.7807842548
 20
11.566744153
 10
20.1032451923
 20
11.4369965568
 10
20.3875450721
 20
11.2958006433
 10
20.6298677885
 20
11.1431564126
 10
20.8340294471
 20
10.9790638645
 10
21.0095703125
 20
10.8016149462
 10
21.1622145433
 20
10.6089016049
 10
21.2957782452
 20
10.3951996818
 10
21.4083533654
 20
10.1662333357
 10
21.498031851
 20
9.9220025664
 10
21.562905649
 20
9.6701395857
 10
21.6010667067
 20
9.4049202347
 10
21.6144230769
 20
9.1320686722
 10
21.6144230769
 20
9.1320686722
 10
21.6010667067
 20
8.853492951
 10
21.562905649
 20
8.5863655472
 10
21.498031851
 20
8.3306864607
 10
21.4083533654
 20
8.0864556914
 10
21.2919621394
 20
7.8517651866
 10
21.1488581731
 20
7.6266149462
 10
20.9809495192
 20
7.414821076
 10
20.7882361779
 20
7.2125674703
 10
20.5726262019
 20
7.0293943933
 10
20.33984375
 20
6.869117951
 10
20.0898888221
 20
6.7355542491
 10
19.8227614183
 20
6.6248871818
 10
19.5365534856
 20
6.539024802
 10
19.2331730769
 20
6.4779671097
 10
18.9126201923
 20
6.439806052
 10
18.5729867788
 20
6.4283577347
 10
18.5729867788
 20
6.4283577347
 10
15.9971153846
 20
6.4283577347
 10
15.9971153846
 20
6.4283577347
 10
15.9971153846
 20
15.9533577347
  0
LWPOLYLINE
  5
87
330
1F
100
AcDbEntity
  8
0
  6
Continuous
 62
     7
100
AcDbPolyline
 90
       40
 70
   128
 43
0.0
 10
16.8519169092
 20
14.9764346578
 10
16.8519230769
 20
11.9235500424
 10
16.8519230769
 20
11.9235500424
 10
17.4262469952
 20
11.9235500424
 10
17.4262469952
 20
11.9235500424
 10
17.678109976
 20
11.9273661482
 10
17.9128004808
 20
11.9349983597
 10
18.1303185096
 20
11.9502627828
 10
18.3325721154
 20
11.9693433116
 10
18.5138371394
 20
11.996056052
 10
18.6798377404
 20
12.028492951
 10
18.8286658654
 20
12.0647459558
 10
18.9603215144
 20
12.1086311722
 10
19.1931039663
 20
12.2135740808
 10
19.4010817308
 20
12.3471377828
 10
19.5823467548
 20
12.5055061722
 10
19.7388070913
 20
12.690587302
 10
19.8647385817
 20
12.8947489607
 10
19.9544170673
 20
13.1122669895
 10
20.009750601
 20
13.3374172299
 10
20.0269230769
 20
13.5759238405
 10
20.0269230769
 20
13.5759238405
 10
20.0192908654
 20
13.7342922299
 10
19.9963942308
 20
13.8850284078
 10
19.9582331731
 20
14.0262243212
 10
19.9067157452
 20
14.1597880232
 10
19.8380258413
 20
14.2838114607
 10
19.7559795673
 20
14.3982946337
 10
19.6567608173
 20
14.5051455953
 10
19.5441856971
 20
14.6024562924
 10
19.414438101
 20
14.6902267251
 10
19.2675180288
 20
14.7665488405
 10
19.1034254808
 20
14.8295145857
 10
18.9202524038
 20
14.8829400664
 10
18.719906851
 20
14.923009177
 10
18.5023888221
 20
14.9535380232
 10
18.2657902644
 20
14.9707104991
 10
18.0120192308
 20
14.9764346578
 10
18.0120192308
 20
14.9764346578
 10
16.8519230769
 20
14.9764346578
  0
LWPOLYLINE
  5
88
330
1F
100
AcDbEntity
  8
0
  6
Continuous
 62
     7
100
AcDbPolyline
 90
       45
 70
   128
 43
0.0
 10
16.8519169092
 20
10.9466269655
 10
16.8519230769
 20
7.4052808116
 10
16.8519230769
 20
7.4052808116
 10
18.0692608173
 20
7.4052808116
 10
18.0692608173
 20
7.4052808116
 10
18.3306640625
 20
7.4090969174
 10
18.5729867788
 20
7.4167291289
 10
18.7962289663
 20
7.431993552
 10
19.0042067308
 20
7.4548901866
 10
19.1911959135
 20
7.481602927
 10
19.3629206731
 20
7.5159478789
 10
19.5155649038
 20
7.5560169895
 10
19.6491286058
 20
7.6018102587
 10
19.8876352163
 20
7.7143853789
 10
20.1013371394
 20
7.8555812924
 10
20.290234375
 20
8.0234899462
 10
20.4543269231
 20
8.2200193933
 10
20.587890625
 20
8.4356293693
 10
20.6832932692
 20
8.6588715568
 10
20.7405348558
 20
8.8916540087
 10
20.7596153846
 20
9.1320686722
 10
20.7596153846
 20
9.1320686722
 10
20.753891226
 20
9.2828048501
 10
20.7329026442
 20
9.4297249222
 10
20.7004657452
 20
9.5709208357
 10
20.6565805288
 20
9.7083006433
 10
20.5974308894
 20
9.8380482395
 10
20.5249248798
 20
9.9658877828
 10
20.4409705529
 20
10.0880031674
 10
20.3436598558
 20
10.2043943933
 10
20.1166015625
 20
10.4161882635
 10
19.8494741587
 20
10.5917291289
 10
19.5441856971
 20
10.7310169895
 10
19.2007361779
 20
10.8340518453
 10
19.2007361779
 20
10.8340518453
 10
19.0614483173
 20
10.8607645857
 10
18.8973557692
 20
10.8836612203
 10
18.7103665865
 20
10.9027417491
 10
18.5004807692
 20
10.9180061722
 10
18.2657902644
 20
10.9313625424
 10
18.0062950721
 20
10.9389947539
 10
17.7239032452
 20
10.9447189126
 10
17.4186147837
 20
10.9466269655
 10
17.4186147837
 20
10.9466269655
 10
16.8519230769
 20
10.9466269655
  0
LINE
  5
89
330
1F
100
AcDbEntity
  8
0
  6
Continuous
 62
     7
100
AcDbLine
 10
26.6860276442
 20
13.5110500424
 30
0.0
 11
26.6860127449
 21
13.5110500424
 31
0.0
  0
ARC
  5
8A
330
1F
100
AcDbEntity
  8
0
  6
Continuous
 62
     7
100
AcDbCircle
 10
26.6822047926
 20
9.9091881016
 30
0.0
 40
2.747054248535821
100
AcDbArc
 50
90.0001406803
 51
89.9998592999
  0
LWPOLYLINE
  5
8B
330
1F
100
AcDbEntity
  8
0
  6
Continuous
 62
     7
100
AcDbPolyline
 90
       24
 70
   128
 43
0.0
 10
32.8490138054
 20
16.1975885039
 10
33.7038461538
 20
16.1975885039
 10
33.7038461538
 20
16.1975885039
 10
33.7038461538
 20
13.3889346578
 10
33.7038461538
 20
13.3889346578
 10
34.925
 20
13.3889346578
 10
34.925
 20
13.3889346578
 10
34.925
 20
12.5341269655
 10
34.925
 20
12.5341269655
 10
33.7038461538
 20
12.5341269655
 10
33.7038461538
 20
12.5341269655
 10
33.7038461538
 20
6.4283577347
 10
33.7038461538
 20
6.4283577347
 10
32.8490384615
 20
6.4283577347
 10
32.8490384615
 20
6.4283577347
 10
32.8490384615
 20
12.5341269655
 10
32.8490384615
 20
12.5341269655
 10
31.6278846154
 20
12.5341269655
 10
31.6278846154
 20
12.5341269655
 10
31.6278846154
 20
13.3889346578
 10
31.6278846154
 20
13.3889346578
 10
32.8490384615
 20
13.3889346578
 10
32.8490384615
 20
13.3889346578
 10
32.8490384615
 20
16.1975885039
  0
LWPOLYLINE
  5
8C
330
1F
100
AcDbEntity
  8
0
  6
Continuous
 62
     7
100
AcDbPolyline
 90
       20
 70
   128
 43
0.0
 10
-14.9992033839
 20
-3.3252282589
 10
-14.8641559829
 20
-3.3252282589
 10
-14.8641559829
 20
-3.3252282589
 10
-14.8641559829
 20
-8.4540744127
 10
-14.8641559829
 20
-8.4540744127
 10
-14.0093482906
 20
-8.4540744127
 10
-14.0093482906
 20
-8.4540744127
 10
-14.0093482906
 20
-9.2139034725
 10
-14.0093482906
 20
-9.2139034725
 10
-14.8641559829
 20
-9.2139034725
 10
-14.8641559829
 20
-9.2139034725
 10
-14.8641559829
 20
-10.9235188572
 10
-14.8641559829
 20
-10.9235188572
 10
-15.5290064103
 20
-10.9235188572
 10
-15.5290064103
 20
-10.9235188572
 10
-15.5290064103
 20
-9.2139034725
 10
-15.5290064103
 20
-9.2139034725
 10
-19.043215812
 20
-9.2139034725
 10
-19.043215812
 20
-9.2139034725
 10
-14.999203726
 20
-3.3252282589
  0
LWPOLYLINE
  5
8D
330
1F
100
AcDbEntity
  8
0
  6
Continuous
 62
     7
100
AcDbPolyline
 90
        6
 70
   128
 43
0.0
 10
-15.528999269
 20
-8.4540744127
 10
-15.5290064103
 20
-5.2366732375
 10
-15.5290064103
 20
-5.2366732375
 10
-17.7372596154
 20
-8.4540744127
 10
-17.7372596154
 20
-8.4540744127
 10
-15.5290064103
 20
-8.4540744127
  0
LWPOLYLINE
  5
8E
330
1F
100
AcDbEntity
  8
0
  6
Continuous
 62
     7
100
AcDbPolyline
 90
       20
 70
   128
 43
0.0
 10
-9.3004852533
 20
-3.3252282589
 10
-9.1654380342
 20
-3.3252282589
 10
-9.1654380342
 20
-3.3252282589
 10
-9.1654380342
 20
-8.4540744127
 10
-9.1654380342
 20
-8.4540744127
 10
-8.3106303419
 20
-8.4540744127
 10
-8.3106303419
 20
-8.4540744127
 10
-8.3106303419
 20
-9.2139034725
 10
-8.3106303419
 20
-9.2139034725
 10
-9.1654380342
 20
-9.2139034725
 10
-9.1654380342
 20
-9.2139034725
 10
-9.1654380342
 20
-10.9235188572
 10
-9.1654380342
 20
-10.9235188572
 10
-9.8302884615
 20
-10.9235188572
 10
-9.8302884615
 20
-10.9235188572
 10
-9.8302884615
 20
-9.2139034725
 10
-9.8302884615
 20
-9.2139034725
 10
-13.3444978632
 20
-9.2139034725
 10
-13.3444978632
 20
-9.2139034725
 10
-9.3004857772
 20
-3.3252282589
  0
LWPOLYLINE
  5
8F
330
1F
100
AcDbEntity
  8
0
  6
Continuous
 62
     7
100
AcDbPolyline
 90
        6
 70
   128
 43
0.0
 10
-9.8302811384
 20
-8.4540744127
 10
-9.8302884615
 20
-5.2366732375
 10
-9.8302884615
 20
-5.2366732375
 10
-12.0385416667
 20
-8.4540744127
 10
-12.0385416667
 20
-8.4540744127
 10
-9.8302884615
 20
-8.4540744127
  0
LWPOLYLINE
  5
90
330
1F
100
AcDbEntity
  8
0
  6
Continuous
 62
     7
100
AcDbPolyline
 90
        8
 70
   128
 43
0.0
 10
-0.9022969753
 20
-3.3252282589
 10
-4.0009748932
 20
-11.9682838144
 10
-4.0009748932
 20
-11.9682838144
 10
-4.7014423077
 20
-11.9682838144
 10
-4.7014423077
 20
-11.9682838144
 10
-1.6027644231
 20
-3.3252282589
 10
-1.6027644231
 20
-3.3252282589
 10
-0.9022970085
 20
-3.3252282589
  0
LWPOLYLINE
  5
91
330
1F
100
AcDbEntity
  8
0
  6
Continuous
 62
     7
100
AcDbPolyline
 90
       12
 70
   128
 43
0.0
 10
4.091501236
 20
-3.5151855238
 10
5.4612713675
 20
-3.5151855238
 10
5.4612713675
 20
-3.5151855238
 10
5.4612713675
 20
-10.9235188572
 10
5.4612713675
 20
-10.9235188572
 10
4.7964209402
 20
-10.9235188572
 10
4.7964209402
 20
-10.9235188572
 10
4.7964209402
 20
-4.2750145837
 10
4.7964209402
 20
-4.2750145837
 10
3.6566773504
 20
-4.2750145837
 10
3.6566773504
 20
-4.2750145837
 10
4.0915014022
 20
-3.5151855238
  0
LWPOLYLINE
  5
92
330
1F
100
AcDbEntity
  8
0
  6
Continuous
 62
     7
100
AcDbPolyline
 90
      132
 70
   128
 43
0.0
 10
12.8696039319
 20
-3.5151855238
 10
12.8696047009
 20
-4.2750145837
 10
12.8696047009
 20
-4.2750145837
 10
10.3497028579
 20
-4.2750145837
 10
10.3497028579
 20
-4.2750145837
 10
9.9504957933
 20
-6.2235605906
 10
9.9504957933
 20
-6.2235605906
 10
10.1864583333
 20
-6.161230863
 10
10.4105485443
 20
-6.1152255879
 10
10.6227664263
 20
-6.0885128475
 10
10.8231119792
 20
-6.0796086007
 10
10.8231119792
 20
-6.0796086007
 10
11.0709468483
 20
-6.0899968887
 10
11.3083934295
 20
-6.1226457936
 10
11.5339676816
 20
-6.1760712744
 10
11.7491536458
 20
-6.250273331
 10
11.952467281
 20
-6.3452519635
 10
12.1439085871
 20
-6.4624912129
 10
12.3249616052
 20
-6.6005070382
 10
12.4956263355
 20
-6.7607834806
 10
12.6499666132
 20
-6.9373843753
 10
12.7835303152
 20
-7.124373558
 10
12.8978014824
 20
-7.3247191109
 10
12.9898120326
 20
-7.5354529517
 10
13.0625300481
 20
-7.7595431627
 10
13.1129874466
 20
-7.9955057028
 10
13.1441523104
 20
-8.2433405719
 10
13.1545405983
 20
-8.5030477701
 10
13.1545405983
 20
-8.5030477701
 10
13.1486044338
 20
-8.6841007882
 10
13.1337640224
 20
-8.8621857241
 10
13.1070512821
 20
-9.0358185366
 10
13.0699502537
 20
-9.2064832669
 10
13.0224609375
 20
-9.3726958737
 10
12.9645833333
 20
-9.5344563572
 10
12.8948334001
 20
-9.6932487583
 10
12.8161792201
 20
-9.8490730772
 10
12.7286207933
 20
-9.9974771905
 10
12.6321581197
 20
-10.1369770569
 10
12.5297592815
 20
-10.2675726766
 10
12.4199402377
 20
-10.3892640495
 10
12.3012169471
 20
-10.5020511755
 10
12.1750734509
 20
-10.6059340548
 10
12.0429937901
 20
-10.7009126873
 10
11.9020098825
 20
-10.786987073
 10
11.7550898104
 20
-10.8641572119
 10
11.6022335737
 20
-10.9294550217
 10
11.4449252137
 20
-10.9858485847
 10
11.2816806891
 20
-11.0318538598
 10
11.1125
 20
-11.067470847
 10
10.9373831464
 20
-11.0926995463
 10
10.7563301282
 20
-11.1090239987
 10
10.5708249866
 20
-11.1134761221
 10
10.5708249866
 20
-11.1134761221
 10
10.3497028579
 20
-11.1045718753
 10
10.137484976
 20
-11.0763750938
 10
9.9341713408
 20
-11.0318538598
 10
9.7397619525
 20
-10.9680400911
 10
9.5542568109
 20
-10.8864178288
 10
9.3776559161
 20
-10.7855030318
 10
9.208475227
 20
-10.6682637824
 10
9.0496828259
 20
-10.5317319982
 10
8.9027627537
 20
-10.3803598027
 10
8.7721671341
 20
-10.2185993192
 10
8.6564119257
 20
-10.0464505479
 10
8.5554971287
 20
-9.8624294474
 10
8.4709067842
 20
-9.6695041002
 10
8.4026408921
 20
-9.4647064239
 10
8.3492154113
 20
-9.2495204597
 10
8.3106303419
 20
-9.0239462076
 10
8.3106303419
 20
-9.0239462076
 10
8.9754807692
 20
-9.0239462076
 10
8.9754807692
 20
-9.0239462076
 10
9.02890625
 20
-9.2346800484
 10
9.0971721421
 20
-9.4231532722
 10
9.1817624866
 20
-9.5923339613
 10
9.2811932425
 20
-9.7407380746
 10
9.398432492
 20
-9.8713336942
 10
9.533480235
 20
-9.9885729437
 10
9.6863364717
 20
-10.0939398641
 10
9.8570012019
 20
-10.1844663732
 10
10.0380542201
 20
-10.2586684298
 10
10.2250434028
 20
-10.3106098694
 10
10.4150006677
 20
-10.3432587744
 10
10.6094100561
 20
-10.3536470623
 10
10.6094100561
 20
-10.3536470623
 10
10.799367321
 20
-10.3447428155
 10
10.9819043803
 20
-10.3195141162
 10
11.1585052751
 20
-10.2779609645
 10
11.3276859642
 20
-10.2185993192
 10
11.4894464476
 20
-10.1443972626
 10
11.6452707666
 20
-10.0509026713
 10
11.7936748798
 20
-9.9425676686
 10
11.9361428285
 20
-9.8164241723
 10
12.0652544071
 20
-9.678408347
 10
12.1780415331
 20
-9.5314882749
 10
12.2730201656
 20
-9.375663956
 10
12.3516743456
 20
-9.2124194314
 10
12.4125200321
 20
-9.04027066
 10
12.4555572249
 20
-8.860701683
 10
12.4807859241
 20
-8.6722284592
 10
12.4896901709
 20
-8.4748509886
 10
12.4896901709
 20
-8.4748509886
 10
12.4822699653
 20
-8.2967660527
 10
12.4600093483
 20
-8.1275853636
 10
12.4214242788
 20
-7.9673089213
 10
12.3679987981
 20
-7.8159367257
 10
12.299732906
 20
-7.6719847359
 10
12.2166266026
 20
-7.5369369928
 10
12.1171958467
 20
-7.4107934966
 10
12.0029246795
 20
-7.2935542471
 10
11.8767811832
 20
-7.1867032856
 10
11.7387653579
 20
-7.0946927354
 10
11.5918452858
 20
-7.0175225965
 10
11.4345369257
 20
-6.9522247866
 10
11.2668402778
 20
-6.9032514293
 10
11.0887553419
 20
-6.8676344421
 10
10.9017661592
 20
-6.8468578662
 10
10.7029046474
 20
-6.8394376606
 10
10.7029046474
 20
-6.8394376606
 10
10.5307558761
 20
-6.8453738251
 10
10.3482188168
 20
-6.8631823187
 10
10.1582615518
 20
-6.8928631413
 10
9.9579159989
 20
-6.9344162931
 10
9.7501502404
 20
-6.9878417738
 10
9.5319961939
 20
-7.0531395837
 10
9.3064219418
 20
-7.1303097225
 10
9.0704594017
 20
-7.2193521905
 10
9.0704594017
 20
-7.2193521905
 10
9.8302884615
 20
-3.5151855238
 10
9.8302884615
 20
-3.5151855238
 10
12.8696047009
 20
-3.5151855238
  0
LWPOLYLINE
  5
93
330
1F
100
AcDbEntity
  8
0
  6
Continuous
 62
     7
100
AcDbPolyline
 90
       12
 70
   128
 43
0.0
 10
15.4889300466
 20
-3.5151855238
 10
16.858707265
 20
-3.5151855238
 10
16.858707265
 20
-3.5151855238
 10
16.858707265
 20
-10.9235188572
 10
16.858707265
 20
-10.9235188572
 10
16.1938568376
 20
-10.9235188572
 10
16.1938568376
 20
-10.9235188572
 10
16.1938568376
 20
-4.2750145837
 10
16.1938568376
 20
-4.2750145837
 10
15.0541132479
 20
-4.2750145837
 10
15.0541132479
 20
-4.2750145837
 10
15.4889372997
 20
-3.5151855238
  0
POINT
  5
94
330
1F
100
AcDbEntity
  8
0
  6
Continuous
 62
     7
100
AcDbPoint
 10
0.0
 20
0.0
 30
0.0
  0
MTEXT
  5
96
330
1F
100
AcDbEntity
  8
0
  6
Continuous
 62
     7
100
AcDbMText
 10
-50.0
 20
-26.0195663917
 30
0.0
 40
4.83362
 41
0.0
 71
     1
 72
     1
  1
Produit d'éducation SOLIDWORKS – A titre éducatif uniquement.
  7
SLDTEXTSTYLE0
 73
     1
 44
1.0
  0
ENDSEC
  0
SECTION
  2
OBJECTS
  0
DICTIONARY
  5
C
330
0
100
AcDbDictionary
281
     1
  3
ACAD_GROUP
350
D
  3
ACAD_LAYOUT
350
1A
  3
ACAD_MLINESTYLE
350
17
  3
ACAD_PLOTSETTINGS
350
19
  3
ACAD_PLOTSTYLENAME
350
E
  3
ACAD_SCALELIST
350
47
  0
DICTIONARY
  5
D
102
{ACAD_REACTORS
330
C
102
}
330
C
100
AcDbDictionary
281
     1
  0
DICTIONARY
  5
1A
102
{ACAD_REACTORS
330
C
102
}
330
C
100
AcDbDictionary
281
     1
  3
Layout1
350
1E
  3
Layout2
350
26
  3
Model
350
22
  0
DICTIONARY
  5
17
102
{ACAD_REACTORS
330
C
102
}
330
C
100
AcDbDictionary
281
     1
  3
Standard
350
18
  0
DICTIONARY
  5
19
102
{ACAD_REACTORS
330
C
102
}
330
C
100
AcDbDictionary
281
     1
  0
ACDBDICTIONARYWDFLT
  5
E
102
{ACAD_REACTORS
330
C
102
}
330
C
100
AcDbDictionary
281
     1
  3
Normal
350
F
100
AcDbDictionaryWithDefault
340
F
  0
DICTIONARY
  5
47
102
{ACAD_REACTORS
330
C
102
}
330
C
100
AcDbDictionary
281
     1
  3
A0
350
48
  3
A1
350
49
  3
A2
350
4A
  3
A3
350
4B
  3
A4
350
4C
  3
A5
350
4D
  3
A6
350
4E
  3
A7
350
4F
  3
A8
350
50
  3
A9
350
51
  3
B0
350
52
  3
B1
350
53
  3
B2
350
54
  3
B3
350
55
  3
B4
350
56
  3
B5
350
57
  3
B6
350
58
  3
B7
350
59
  3
B8
350
5A
  3
B9
350
5B
  3
C0
350
5C
  3
C1
350
5D
  3
C2
350
5E
  3
C3
350
5F
  3
C4
350
60
  3
C5
350
61
  3
C6
350
62
  3
C7
350
63
  3
C8
350
64
  3
C9
350
65
  3
D0
350
66
  3
D1
350
67
  3
D2
350
68
  0
LAYOUT
  5
1E
102
{ACAD_REACTORS
330
1A
102
}
330
1A
100
AcDbPlotSettings
  1

  2
none_device
  4

  6

 40
0.0
 41
0.0
 42
0.0
 43
0.0
 44
0.0
 45
0.0
 46
0.0
 47
0.0
 48
0.0
 49
0.0
140
0.0
141
0.0
142
1.0
143
1.0
 70
   688
 72
     1
 73
     0
 74
     5
  7

 75
    16
147
1.0
148
0.0
149
0.0
100
AcDbLayout
  1
Layout1
 70
     1
 71
     1
 10
0.0
 20
0.0
 11
420.0
 21
297.0
 12
0.0
 22
0.0
 32
0.0
 14
1.0000000000E+20
 24
1.0000000000E+20
 34
1.0000000000E+20
 15
-1.0000000000E+20
 25
-1.0000000000E+20
 35
-1.0000000000E+20
146
0.0
 13
0.0
 23
0.0
 33
0.0
 16
1.0
 26
0.0
 36
0.0
 17
0.0
 27
1.0
 37
0.0
 76
     0
330
1B
  0
LAYOUT
  5
26
102
{ACAD_REACTORS
330
1A
102
}
330
1A
100
AcDbPlotSettings
  1

  2
none_device
  4

  6

 40
0.0
 41
0.0
 42
0.0
 43
0.0
 44
0.0
 45
0.0
 46
0.0
 47
0.0
 48
0.0
 49
0.0
140
0.0
141
0.0
142
1.0
143
1.0
 70
   688
 72
     1
 73
     0
 74
     5
  7

 75
    16
147
1.0
148
0.0
149
0.0
100
AcDbLayout
  1
Layout2
 70
     1
 71
     2
 10
0.0
 20
0.0
 11
0.0
 21
0.0
 12
0.0
 22
0.0
 32
0.0
 14
0.0
 24
0.0
 34
0.0
 15
0.0
 25
0.0
 35
0.0
146
0.0
 13
0.0
 23
0.0
 33
0.0
 16
1.0
 26
0.0
 36
0.0
 17
0.0
 27
1.0
 37
0.0
 76
     0
330
23
  0
LAYOUT
  5
22
102
{ACAD_REACTORS
330
1A
102
}
330
1A
100
AcDbPlotSettings
  1

  2
none_device
  4
ANSI_A_(11.00_x_8.50_Inches)
  6

 40
6.35
 41
19.05
 42
6.35000508
 43
19.05000254
 44
279.4
 45
215.9
 46
133.34999746
 47
88.89999873
 48
0.0
 49
0.0
140
0.0
141
0.0
142
0.1089
143
1.0
 70
  1696
 72
     0
 73
     0
 74
     0
  7

 75
     0
147
0.0179189148
148
-1300.4909072572
149
0.0
100
AcDbLayout
  1
Model
 70
     1
 71
     0
 10
0.0
 20
0.0
 11
420.0
 21
297.0
 12
0.0
 22
0.0
 32
0.0
 14
-50.0
 24
-25.0
 34
0.0
 15
50.0
 25
25.0
 35
0.0
146
0.0
 13
0.0
 23
0.0
 33
0.0
 16
1.0
 26
0.0
 36
0.0
 17
0.0
 27
1.0
 37
0.0
 76
     0
330
1F
331
29
  0
MLINESTYLE
  5
18
102
{ACAD_REACTORS
330
17
102
}
330
17
100
AcDbMlineStyle
  2
Standard
 70
     0
  3

 62
   256
 51
90.0
 52
90.0
 71
     2
 49
0.5
 62
   256
  6
BYLAYER
 49
-0.5
 62
   256
  6
BYLAYER
  0
ACDBPLACEHOLDER
  5
F
102
{ACAD_REACTORS
330
E
102
}
330
E
  0
SCALE
  5
48
102
{ACAD_REACTORS
330
47
102
}
330
47
100
AcDbScale
 70
     0
300
1:1
140
1.0
141
1.0
290
     1
  0
SCALE
  5
49
102
{ACAD_REACTORS
330
47
102
}
330
47
100
AcDbScale
 70
     0
300
1:2
140
1.0
141
2.0
290
     0
  0
SCALE
  5
4A
102
{ACAD_REACTORS
330
47
102
}
330
47
100
AcDbScale
 70
     0
300
1:4
140
1.0
141
4.0
290
     0
  0
SCALE
  5
4B
102
{ACAD_REACTORS
330
47
102
}
330
47
100
AcDbScale
 70
     0
300
1:5
140
1.0
141
5.0
290
     0
  0
SCALE
  5
4C
102
{ACAD_REACTORS
330
47
102
}
330
47
100
AcDbScale
 70
     0
300
1:8
140
1.0
141
8.0
290
     0
  0
SCALE
  5
4D
102
{ACAD_REACTORS
330
47
102
}
330
47
100
AcDbScale
 70
     0
300
1:10
140
1.0
141
10.0
290
     0
  0
SCALE
  5
4E
102
{ACAD_REACTORS
330
47
102
}
330
47
100
AcDbScale
 70
     0
300
1:16
140
1.0
141
16.0
290
     0
  0
SCALE
  5
4F
102
{ACAD_REACTORS
330
47
102
}
330
47
100
AcDbScale
 70
     0
300
1:20
140
1.0
141
20.0
290
     0
  0
SCALE
  5
50
102
{ACAD_REACTORS
330
47
102
}
330
47
100
AcDbScale
 70
     0
300
1:30
140
1.0
141
30.0
290
     0
  0
SCALE
  5
51
102
{ACAD_REACTORS
330
47
102
}
330
47
100
AcDbScale
 70
     0
300
1:40
140
1.0
141
40.0
290
     0
  0
SCALE
  5
52
102
{ACAD_REACTORS
330
47
102
}
330
47
100
AcDbScale
 70
     0
300
1:50
140
1.0
141
50.0
290
     0
  0
SCALE
  5
53
102
{ACAD_REACTORS
330
47
102
}
330
47
100
AcDbScale
 70
     0
300
1:100
140
1.0
141
100.0
290
     0
  0
SCALE
  5
54
102
{ACAD_REACTORS
330
47
102
}
330
47
100
AcDbScale
 70
     0
300
2:1
140
2.0
141
1.0
290
     0
  0
SCALE
  5
55
102
{ACAD_REACTORS
330
47
102
}
330
47
100
AcDbScale
 70
     0
300
4:1
140
4.0
141
1.0
290
     0
  0
SCALE
  5
56
102
{ACAD_REACTORS
330
47
102
}
330
47
100
AcDbScale
 70
     0
300
8:1
140
8.0
141
1.0
290
     0
  0
SCALE
  5
57
102
{ACAD_REACTORS
330
47
102
}
330
47
100
AcDbScale
 70
     0
300
10:1
140
10.0
141
1.0
290
     0
  0
SCALE
  5
58
102
{ACAD_REACTORS
330
47
102
}
330
47
100
AcDbScale
 70
     0
300
100:1
140
100.0
141
1.0
290
     0
  0
SCALE
  5
59
102
{ACAD_REACTORS
330
47
102
}
330
47
100
AcDbScale
 70
     0
300
1/128" = 1'-0"
140
0.0078125
141
12.0
290
     0
  0
SCALE
  5
5A
102
{ACAD_REACTORS
330
47
102
}
330
47
100
AcDbScale
 70
     0
300
1/64" = 1'-0"
140
0.015625
141
12.0
290
     0
  0
SCALE
  5
5B
102
{ACAD_REACTORS
330
47
102
}
330
47
100
AcDbScale
 70
     0
300
1/32" = 1'-0"
140
0.03125
141
12.0
290
     0
  0
SCALE
  5
5C
102
{ACAD_REACTORS
330
47
102
}
330
47
100
AcDbScale
 70
     0
300
1/16" = 1'-0"
140
0.0625
141
12.0
290
     0
  0
SCALE
  5
5D
102
{ACAD_REACTORS
330
47
102
}
330
47
100
AcDbScale
 70
     0
300
3/32" = 1'-0"
140
0.09375
141
12.0
290
     0
  0
SCALE
  5
5E
102
{ACAD_REACTORS
330
47
102
}
330
47
100
AcDbScale
 70
     0
300
1/8" = 1'-0"
140
0.125
141
12.0
290
     0
  0
SCALE
  5
5F
102
{ACAD_REACTORS
330
47
102
}
330
47
100
AcDbScale
 70
     0
300
3/16" = 1'-0"
140
0.1875
141
12.0
290
     0
  0
SCALE
  5
60
102
{ACAD_REACTORS
330
47
102
}
330
47
100
AcDbScale
 70
     0
300
1/4" = 1'-0"
140
0.25
141
12.0
290
     0
  0
SCALE
  5
61
102
{ACAD_REACTORS
330
47
102
}
330
47
100
AcDbScale
 70
     0
300
3/8" = 1'-0"
140
0.375
141
12.0
290
     0
  0
SCALE
  5
62
102
{ACAD_REACTORS
330
47
102
}
330
47
100
AcDbScale
 70
     0
300
1/2" = 1'-0"
140
0.5
141
12.0
290
     0
  0
SCALE
  5
63
102
{ACAD_REACTORS
330
47
102
}
330
47
100
AcDbScale
 70
     0
300
3/4" = 1'-0"
140
0.75
141
12.0
290
     0
  0
SCALE
  5
64
102
{ACAD_REACTORS
330
47
102
}
330
47
100
AcDbScale
 70
     0
300
1" = 1'-0"
140
1.0
141
12.0
290
     0
  0
SCALE
  5
65
102
{ACAD_REACTORS
330
47
102
}
330
47
100
AcDbScale
 70
     0
300
1-1/2" = 1'-0"
140
1.5
141
12.0
290
     0
  0
SCALE
  5
66
102
{ACAD_REACTORS
330
47
102
}
330
47
100
AcDbScale
 70
     0
300
3" = 1'-0"
140
3.0
141
12.0
290
     0
  0
SCALE
  5
67
102
{ACAD_REACTORS
330
47
102
}
330
47
100
AcDbScale
 70
     0
300
6" = 1'-0"
140
6.0
141
12.0
290
     0
  0
SCALE
  5
68
102
{ACAD_REACTORS
330
47
102
}
330
47
100
AcDbScale
 70
     0
300
1'-0" = 1'-0"
140
12.0
141
12.0
290
     0
  0
ENDSEC
  0
EOF
